Coordinates
version=1
nRows=17
nColumns=24
inDegrees=yes

Units are S.I. units (second, meters, Newtons, ...)
Angles are in degrees.

endheader
time	pelvis_tilt	pelvis_list	pelvis_rotation	pelvis_tx	pelvis_ty	pelvis_tz	hip_flexion_r	hip_adduction_r	hip_rotation_r	knee_angle_r	ankle_angle_r	subtalar_angle_r	mtp_angle_r	hip_flexion_l	hip_adduction_l	hip_rotation_l	knee_angle_l	ankle_angle_l	subtalar_angle_l	mtp_angle_l	lumbar_extension	lumbar_bending	lumbar_rotation
      1.24566667	     -5.70487003	      2.97614546	     -5.22321640	      0.21055130	      1.06684155	      0.28155516	     21.80684960	     -5.16401370	     -2.78318042	    -68.12688585	      0.79315110	     -3.37656509	     11.92275729	     12.70772744	      3.29318584	      2.21289104	    -12.29316185	      6.55589599	     -1.68441409	      5.73027691	     -6.91340926	     -2.00100998	      0.07907946
      1.24983333	     -5.70007876	      2.84136526	     -5.23451989	      0.21600975	      1.06775971	      0.28153006	     22.25822050	     -4.96131066	     -2.90339061	    -67.71370195	      1.05610550	     -3.17556321	     11.90659750	     12.12129049	      3.17544306	      2.29187164	    -11.78511639	      6.55358566	     -1.72900769	      5.70259390	     -6.94583816	     -1.83423691	     -0.02252148
      1.25400000	     -5.69016106	      2.71508131	     -5.24274517	      0.22146262	      1.06862911	      0.28150309	     22.69585244	     -4.77090180	     -3.03071755	    -67.25340016	      1.32084979	     -2.99018814	     11.89641779	     11.52657087	      3.06818643	      2.38318218	    -11.26678605	      6.53631165	     -1.80009453	      5.67038640	     -6.98239846	     -1.67914113	     -0.13977212
      1.25816667	     -5.64906822	      2.57438981	     -5.24491347	      0.22690953	      1.06952676	      0.28147773	     23.07912259	     -4.56676121	     -3.16703076	    -66.72487796	      1.57370986	     -2.82403414	     11.89404275	     10.90077034	      2.94767979	      2.47522035	    -10.75548973	      6.52841921	     -1.85548160	      5.63949228	     -7.06265541	     -1.51114599	     -0.24634426
      1.26233333	     -5.64648454	      2.43587052	     -5.23857239	      0.23235908	      1.07030942	      0.28146100	     23.49032110	     -4.36031482	     -3.30901039	    -66.14351875	      1.82683046	     -2.66465690	     11.89816237	     10.32849182	      2.82463556	      2.55423000	    -10.26811303	      6.51628593	     -1.90476605	      5.61445733	     -7.09322653	     -1.35294103	     -0.34248527
      1.26650000	     -5.59507509	      2.30619492	     -5.23122306	      0.23779849	      1.07110763	      0.28141438	     23.84182749	     -4.17679434	     -3.46038577	    -65.52224272	      2.07160542	     -2.52751161	     11.90545856	      9.69210048	      2.72000157	      2.67233733	     -9.75182684	      6.51417589	     -1.99558950	      5.58279265	     -7.18476841	     -1.18348231	     -0.47584394
      1.27066667	     -5.56936502	      2.18209300	     -5.21876008	      0.24324133	      1.07180296	      0.28139055	     24.20872335	     -3.99294768	     -3.61065622	    -64.85432432	      2.31785842	     -2.40755769	     11.91582288	      9.09267288	      2.61683935	      2.78852369	     -9.25403481	      6.50014858	     -2.09413138	      5.54936566	     -7.24282970	     -1.02911716	     -0.59870482
      1.27483333	     -5.56599564	      2.03913136	     -5.20111189	      0.24868037	      1.07242122	      0.28138688	     24.57961180	     -3.78174195	     -3.76486472	    -64.12448080	      2.55337856	     -2.33282490	     11.92437598	      8.53928838	      2.48535894	      2.84915034	     -8.80600073	      6.49804963	     -2.11428500	      5.52946907	     -7.27476337	     -0.87194585	     -0.67193415
      1.27900000	     -5.52164799	      1.92207309	     -5.18196716	      0.25411854	      1.07302288	      0.28135558	     24.90433749	     -3.61364198	     -3.92688119	    -63.37019008	      2.77401973	     -2.24577919	     11.93679698	      7.92098867	      2.39272900	      2.99840535	     -8.30824878	      6.50849261	     -2.25442917	      5.49452701	     -7.36272208	     -0.71429291	     -0.83327726
      1.28316667	     -5.51572823	      1.78041339	     -5.15831484	      0.25955201	      1.07353524	      0.28135625	     25.24611266	     -3.40647653	     -4.08671994	    -62.54878352	      3.00094118	     -2.20470807	     11.94529567	      7.37463860	      2.26216546	      3.06382242	     -7.87669534	      6.50849454	     -2.28581754	      5.47397261	     -7.39823536	     -0.55504062	     -0.90550121
      1.28733333	     -5.47128365	      1.68171739	     -5.13592512	      0.26497434	      1.07400438	      0.28134085	     25.55306039	     -3.25808869	     -4.24357404	    -61.71759488	      3.20600351	     -2.16456640	     11.95813599	      6.76241409	      2.18818636	      3.23840111	     -7.38468016	      6.50801020	     -2.47091291	      5.43077209	     -7.49094108	     -0.42246818	     -1.08685914
      1.29150000	     -5.44605680	      1.56571040	     -5.11179943	      0.27040291	      1.07440506	      0.28135175	     25.85881610	     -3.08461684	     -4.40278079	    -60.82840550	      3.40210021	     -2.14576299	     11.96735229	      6.19465734	      2.08781567	      3.34421363	     -6.94641071	      6.52598002	     -2.56716401	      5.39569870	     -7.54706165	     -0.28291930	     -1.18424023
      1.29566667	     -5.44230276	      1.45485686	     -5.08308400	      0.27583250	      1.07469941	      0.28136913	     26.17643588	     -2.91480830	     -4.56047956	    -59.90095472	      3.59061395	     -2.15081430	     11.97582550	      5.65560659	      1.99040686	      3.46993418	     -6.51912505	      6.53882956	     -2.68871024	      5.35496108	     -7.58697582	     -0.14883492	     -1.31169065
      1.29983333	     -5.43345964	      1.35191833	     -5.05737361	      0.28125606	      1.07493794	      0.28140164	     26.47867627	     -2.75274454	     -4.71122139	    -58.93834302	      3.77454513	     -2.16028392	     11.98218256	      5.11900611	      1.90049646	      3.58255184	     -6.10604312	      6.56086503	     -2.79807230	      5.31483672	     -7.63386140	     -0.02784189	     -1.42298677
      1.30400000	     -5.46344930	      1.24697055	     -5.03240603	      0.28669798	      1.07503796	      0.28145527	     26.80879312	     -2.58377288	     -4.86252836	    -57.93634328	      3.95826041	     -2.17082649	     11.98467144	      4.64703030	      1.80123486	      3.62769574	     -5.74488634	      6.61293815	     -2.82469676	      5.29640116	     -7.62032417	      0.09598663	     -1.47640639
      1.30816667	     -5.44013186	      1.16286884	     -5.00632630	      0.29211289	      1.07515787	      0.28150093	     27.07700219	     -2.44636609	     -5.00940114	    -56.90621354	      4.09182820	     -2.20986295	     11.98529943	      4.09979812	      1.73247442	      3.76890144	     -5.33796423	      6.66019400	     -2.97458962	      5.25899100	     -7.68278395	      0.20110386	     -1.62924664
      1.31233333	     -5.49018810	      1.08646651	     -4.99697167	      0.29756227	      1.07508247	      0.28161235	     27.41531287	     -2.29759738	     -5.13184442	    -55.84909855	      4.28309148	     -2.22563905	     11.98621384	      3.65337355	      1.65771859	      3.80168829	     -4.98181366	      6.73300619	     -2.96924969	      5.24824439	     -7.64915202	      0.28970021	     -1.66364246
